<svg id="图层_1" data-name="图层 1" xmlns="http://www.w3.org/2000/svg" viewBox="0 0 300 300"><defs><style>.cls-1{fill:#1d2937;}.cls-2{fill:none;stroke:#f5c74b;stroke-width:4px;}.cls-2,.cls-5{stroke-miterlimit:10;}.cls-3,.cls-6{fill:#f5c74b;}.cls-4{fill:#90c6e5;}.cls-5{fill:#84d4cc;stroke:#005dff;stroke-width:0.25px;}.cls-6{font-size:36px;font-family:HannotateSC-W5-GBpc-EUC-H, Hannotate SC;}</style></defs><rect id="背景" class="cls-1" width="300" height="300" rx="150"/><circle id="圆圈" class="cls-2" cx="150" cy="150" r="145"/><path class="cls-3" d="M121.08,72.79v.13l-13.51-.12v.12H85.4v-.13c-7.79-.09-14.24-11.85-14.32-26.18v-.13h35.67a5.64,5.64,0,0,1,.82,0C115.06,47.33,121.08,58.87,121.08,72.79Z"/><rect class="cls-4" x="81.32" y="83.92" width="29.52" height="146.33" rx="12"/><path class="cls-5" d="M248.52,225.09h-27.8a2.67,2.67,0,0,1-1.83-.73l-59.13-58a2.14,2.14,0,0,1-.36-.46l-34.7,57.8c-1.57,2.6-5.72,1.54-5.72-1.47V183a2.91,2.91,0,0,1,.41-1.47L184.67,72.79a3.09,3.09,0,0,1,2.65-1.47h23.51a2.94,2.94,0,0,1,2.65,4.41L171.93,145a2.57,2.57,0,0,1,1.78.74l76.64,75.2A2.45,2.45,0,0,1,248.52,225.09Z"/><text class="cls-6" transform="translate(70.33 265.72)">TopGeeky</text></svg>